<svg width="124" height="40" viewBox="0 0 124 40" fill="none" xmlns="http://www.w3.org/2000/svg">
<path fill-rule="evenodd" clip-rule="evenodd" d="M23.8345 5.1021L12.936 16.0005C12.4589 16.4776 12.0804 17.0439 11.8222 17.6672C11.5639 18.2906 11.431 18.9587 11.431 19.6333C11.431 20.308 11.5639 20.9761 11.8222 21.5995C12.0804 22.2228 12.4589 22.7891 12.936 23.2662L23.8345 34.1646C24.7982 35.128 26.105 35.6691 27.4676 35.6691C28.8302 35.6691 30.1371 35.128 31.1008 34.1646L34.7336 30.5311L31.1008 26.899L27.4679 30.5318L16.5689 19.6333L27.4679 8.73491L34.7336 16.0005L27.4679 23.2662L31.1008 26.899L38.3664 19.6333C38.8435 19.1563 39.222 18.59 39.4802 17.9666C39.7385 17.3433 39.8714 16.6752 39.8714 16.0005C39.8714 15.3258 39.7385 14.6577 39.4802 14.0344C39.222 13.4111 38.8435 12.8448 38.3664 12.3677L31.1008 5.1021C30.1371 4.13874 28.8302 3.59756 27.4676 3.59756C26.105 3.59756 24.7982 4.13874 23.8345 5.1021Z" fill="#98CA3F"/>
<path d="M46.6369 29.1529V10.2203H54.4799C58.6991 10.2203 61.1604 13.3042 61.1604 16.9008C61.1604 20.4438 58.6417 23.4728 54.4799 23.4728H49.8008V29.1529H46.6369ZM54.4799 20.7145C56.6163 20.7145 58.1314 19.0101 58.1314 16.8194C58.1314 14.6288 56.6706 12.9522 54.4799 12.9522H49.7472V20.7145H54.4799Z" fill="white"/>
<path d="M66.0203 10.2203V24.4771C66.0203 26.6406 66.588 27.3187 68.833 26.9655L68.9414 29.2369C64.9373 29.8859 63.0992 28.8584 63.0992 24.5042V10.2203H66.0203Z" fill="white"/>
<path d="M82.4316 25.2579C82.4316 26.4482 82.4051 27.2051 83.8382 27.0701V29.0722C81.9717 29.4235 80.0517 29.2072 80.0517 27.0436V26.5031C79.3212 28.3146 77.4825 29.3447 75.5618 29.3447C71.5861 29.3447 69.666 26.153 69.666 22.475C69.7474 18.1479 72.8306 15.7674 77.077 15.8488C78.9428 15.8488 80.7279 16.3086 82.4316 17.0655V25.2579ZM79.5899 18.7673C78.6974 18.3611 77.697 18.2261 76.8587 18.2261C74.3703 18.2261 72.693 19.6592 72.6123 22.4724C72.6123 24.8523 73.7748 26.7188 76.1825 26.7188C78.3731 26.7188 79.5092 25.0144 79.5899 22.6074V18.7673Z" fill="white"/>
<path d="M90.0233 16.1458H94.5403V18.5264H90.0233V24.1219C90.0233 27.4486 92.1062 27.6649 94.7838 26.7188L95.0809 28.9366C90.6182 30.3154 87.1294 29.2879 87.1294 24.1761V18.5238H84.4814V16.1458H87.1294V12.9522H90.0233V16.1458Z" fill="white"/>
<path d="M96.3926 28.5575L100.179 22.6345L103.021 18.5238H96.8001V16.1161H107.267V16.4952L103.237 22.743L100.589 26.6103H107.241V29.1529H96.3926V28.5575Z" fill="white"/>
<path d="M110.811 10.1893C111.703 10.1893 112.569 10.7841 112.569 11.9202C112.569 13.0827 111.703 13.6781 110.838 13.6781C109.945 13.6781 109.026 13.1104 109.026 11.9202C109.026 10.757 109.921 10.1893 110.811 10.1893ZM112.271 29.1529H109.323V16.1459H112.271V29.1529Z" fill="white"/>
</svg>
